<svg xmlns="http://www.w3.org/2000/svg" width="341.333" height="341.333" preserveAspectRatio="xMidYMid meet" version="1.0" viewBox="0 0 256 256"><metadata>Created by potrace 1.13, written by Peter Selinger 2001-2015</metadata><g fill="#000" stroke="none"><path d="M0 1280 l0 -1280 1280 0 1280 0 0 1280 0 1280 -1280 0 -1280 0 0 -1280z m1311 741 c114 -43 155 -106 130 -198 -17 -61 -125 -194 -242 -298 -56 -49 -106 -97 -111 -105 -7 -11 9 -45 56 -124 61 -100 66 -113 66 -166 0 -62 -21 -133 -47 -162 -9 -10 -13 -18 -9 -18 30 0 -261 -201 -349 -241 -89 -40 -242 -86 -319 -97 -137 -18 -218 17 -338 147 -75 82 -103 138 -90 184 9 33 52 109 52 93 0 -5 9 -1 19 8 11 10 41 23 67 30 l48 12 23 90 c12 49 24 103 26 119 3 17 7 37 10 45 3 8 11 49 17 90 7 41 20 111 29 156 l17 81 -23 27 c-52 61 -12 136 113 214 28 18 55 32 60 32 5 0 46 15 90 34 69 29 144 50 254 70 14 3 108 3 210 1 160 -2 193 -6 241 -24z m907 -172 c128 -34 227 -92 258 -151 30 -58 12 -202 -37 -300 -23 -45 -179 -231 -179 -213 0 2 -30 -19 -67 -47 -65 -49 -174 -108 -200 -108 -7 0 -13 -3 -13 -8 0 -9 31 -55 43 -63 5 -3 8 -9 8 -13 -2 -13 30 -66 40 -66 6 0 7 -5 4 -10 -3 -6 1 -13 9 -16 9 -3 14 -10 11 -14 -3 -5 7 -19 23 -32 15 -12 27 -26 27 -29 0 -4 36 -44 79 -89 43 -46 75 -77 71 -69 -5 8 -4 10 0 6 5 -4 10 -15 11 -25 2 -9 7 -18 13 -20 16 -5 -15 -92 -46 -124 -39 -41 -75 -58 -125 -58 -41 0 -47 4 -131 93 -134 141 -194 224 -302 422 -21 39 -42 73 -47 76 -6 3 -9 10 -8 15 1 5 -3 10 -9 12 -6 2 -11 1 -11 -2 0 -3 -14 -56 -30 -117 -17 -61 -28 -115 -25 -120 4 -5 2 -9 -3 -9 -5 0 -14 -25 -21 -56 -22 -96 -108 -161 -189 -143 -65 14 -74 51 -42 167 11 40 18 77 15 83 -4 5 -2 9 4 9 7 0 20 45 27 95 0 6 4 17 7 25 4 8 29 94 56 190 28 96 59 202 70 234 12 33 21 63 21 68 0 4 -18 8 -39 8 -31 0 -44 6 -60 26 -40 50 -19 108 72 198 76 77 150 116 294 156 187 52 281 57 421 19z" transform="translate(0.000000,256.000000) scale(0.100000,-0.100000)"/><path d="M828 1809 c-76 -8 -165 -32 -190 -51 -11 -9 -25 -56 -43 -148 -68 -356 -126 -597 -170 -711 -4 -12 5 -23 31 -40 35 -21 40 -22 97 -10 108 22 219 70 315 133 50 35 92 65 92 69 0 3 -23 44 -51 90 -88 145 -92 156 -86 219 2 31 13 73 23 92 19 36 129 158 142 158 17 0 185 167 179 177 -13 21 -217 34 -339 22z" transform="translate(0.000000,256.000000) scale(0.100000,-0.100000)"/><path d="M1852 1621 c-81 -20 -91 -26 -74 -43 21 -21 13 -71 -33 -211 -25 -76 -45 -144 -45 -152 0 -11 17 -2 51 25 39 31 55 38 65 29 7 -6 39 -14 71 -18 83 -12 133 6 229 83 87 68 124 124 124 185 0 30 -4 34 -75 67 -123 57 -192 64 -313 35z" transform="translate(0.000000,256.000000) scale(0.100000,-0.100000)"/></g></svg>